<svg xmlns="http://www.w3.org/2000/svg" width="24" height="24" viewBox="0 0 24 24"><g fill="none" fill-rule="evenodd"><rect width="24" height="24"/><polygon fill="#000" points="5 24 5 21 7 21 7 24"/><polygon fill="#000" points="7 24 7 21 9 21 9 24"/><path fill="#000" d="M6 18C5.44772 18 5 18.4477 5 19L5 21 3 21 3 19C3 17.3431 4.34315 16 6 16L8 16C9.65685 16 11 17.3431 11 19L11 21 9 21 9 19C9 18.4477 8.55228 18 8 18L6 18ZM7 10.5C8.38071 10.5 9.5 11.6193 9.5 13 9.5 14.3807 8.38071 15.5 7 15.5 5.61929 15.5 4.5 14.3807 4.5 13 4.5 11.6193 5.61929 10.5 7 10.5ZM7 12.5C6.72386 12.5 6.5 12.7239 6.5 13 6.5 13.2761 6.72386 13.5 7 13.5 7.27614 13.5 7.5 13.2761 7.5 13 7.5 12.7239 7.27614 12.5 7 12.5Z"/><polygon fill="#000" points="15 24 15 21 17 21 17 24"/><polygon fill="#000" points="17 24 17 21 19 21 19 24"/><path fill="#000" d="M16 18C15.4477 18 15 18.4477 15 19L15 21 13 21 13 19C13 17.3431 14.3431 16 16 16L18 16C19.6569 16 21 17.3431 21 19L21 21 19 21 19 19C19 18.4477 18.5523 18 18 18L16 18ZM17 13.5C17.2761 13.5 17.5 13.2761 17.5 13 17.5 12.7239 17.2761 12.5 17 12.5 16.7239 12.5 16.5 12.7239 16.5 13 16.5 13.2761 16.7239 13.5 17 13.5ZM17 15.5C18.3807 15.5 19.5 14.3807 19.5 13 19.5 11.6193 18.3807 10.5 17 10.5 15.6193 10.5 14.5 11.6193 14.5 13 14.5 14.3807 15.6193 15.5 17 15.5Z"/><path fill="#000" fill-rule="nonzero" d="M13.2195 14.4549C12.799 14.8754 12.6372 15.4567 12.7342 16.0009 13.2784 16.0979 13.8597 15.9361 14.2802 15.5156 14.7007 15.0951 14.8624 14.5138 14.7655 13.9696 14.2213 13.8727 13.64 14.0344 13.2195 14.4549ZM20.7764 14.4549C21.1969 14.8754 21.3587 15.4567 21.2617 16.0009 20.7175 16.0978 20.1363 15.9361 19.7158 15.5156 19.2953 15.0951 19.1335 14.5138 19.2305 13.9696 19.7746 13.8726 20.3559 14.0344 20.7764 14.4549Z"/></g></svg>