<svg xmlns="http://www.w3.org/2000/svg" width="24" height="24" viewBox="0 0 24 24"><g fill="none" fill-rule="evenodd"><rect width="24" height="24"/><path fill="#000" d="M12,9 C13.933,9 15.5,7.433 15.5,5.5 C15.5,3.567 13.933,2 12,2 C10.067,2 8.5,3.567 8.5,5.5 C8.5,7.433 10.067,9 12,9 Z M12,11 C15.0376,11 17.5,8.53757 17.5,5.5 C17.5,2.46243 15.0376,0 12,0 C8.96243,0 6.5,2.46243 6.5,5.5 C6.5,8.53757 8.96243,11 12,11 Z M18,22 L13,22 L13,24 L11,24 L11,22 L6,22 L6,15 L3,15 C2.44772,15 2,15.4477 2,16 L2,24 L0,24 L0,16 C0,14.3431 1.34315,13 3,13 L21,13 C22.6569,13 24,14.3431 24,16 L24,24 L22,24 L22,16 C22,15.4477 21.5523,15 21,15 L18,15 L18,22 Z M8,17.1205 L8,20 L10.0568,20 L8,17.1205 Z M16,17.1205 L13.9432,20 L16,20 L16,17.1205 Z M9,15 L12,19.2795 L15,15 L9,15 Z"/></g></svg>