<svg xmlns="http://www.w3.org/2000/svg" width="24" height="24" viewBox="0 0 24 24"><g fill="none" fill-rule="evenodd"><rect width="24" height="24"/><path fill="#000" d="M22,16 L22,24 L18,24 L18,22 L20,22 L20,16 L22,16 Z M4,16 L4,22 L6,22 L6,24 L2,24 L2,16 L4,16 Z M14,21 L14,24 L10,24 L10,21 L14,21 Z M13,16 C14.6569,16 16,17.3431 16,19 L16,21 L14,21 L14,19 C14,18.4477 13.5523,18 13,18 L11,18 C10.4477,18 10,18.4477 10,19 L10,21 L8,21 L8,19 C8,17.3431 9.34315,16 11,16 L13,16 Z M10,7 C11.0543909,7 11.9181678,7.81587733 11.9945144,8.85073759 L12,8.988 L12.0054856,8.85073759 C12.0818322,7.81587733 12.9456091,7 14,7 L21,7 C22.6569,7 24,8.34315 24,10 L24,16 L22,16 L22,10 C22,9.44772 21.5523,9 21,9 L3,9 C2.44772,9 2,9.44772 2,10 L2,16 L0,16 L0,10 C0,8.34315 1.34315,7 3,7 L10,7 Z M12,10.5 C13.3807,10.5 14.5,11.6193 14.5,13 C14.5,14.3807 13.3807,15.5 12,15.5 C10.6193,15.5 9.5,14.3807 9.5,13 C9.5,11.6193 10.6193,10.5 12,10.5 Z M12,12.5 C11.7239,12.5 11.5,12.7239 11.5,13 C11.5,13.2761 11.7239,13.5 12,13.5 C12.2761,13.5 12.5,13.2761 12.5,13 C12.5,12.7239 12.2761,12.5 12,12.5 Z M18,4 C18.5523,4 19,3.55228 19,3 C19,2.44772 18.5523,2 18,2 C17.4477,2 17,2.44772 17,3 C17,3.55228 17.4477,4 18,4 Z M18,6 C19.6569,6 21,4.65685 21,3 C21,1.34315 19.6569,0 18,0 C16.3431,0 15,1.34315 15,3 C15,4.65685 16.3431,6 18,6 Z M6,4 C6.55228,4 7,3.55228 7,3 C7,2.44772 6.55228,2 6,2 C5.44772,2 5,2.44772 5,3 C5,3.55228 5.44772,4 6,4 Z M6,6 C7.65685,6 9,4.65685 9,3 C9,1.34315 7.65685,0 6,0 C4.34315,0 3,1.34315 3,3 C3,4.65685 4.34315,6 6,6 Z"/></g></svg>