<svg xmlns="http://www.w3.org/2000/svg" width="24" height="24" viewBox="0 0 24 24"><g fill="none" fill-rule="evenodd"><rect width="24" height="24"/><path fill="#000" d="M17.15083,1 C19.63613,1 21.65083,3.01472 21.65083,5.5 C21.65083,7.98528 19.63613,10 17.15083,10 C16.2736403,10 15.4550754,9.74901711 14.7630274,9.31494611 L7.09,16.987 L9.4046,19.23931 L8.00962,20.67241 L5.675,18.401 L4.831,19.245 L7.65685,22.07141 L6.24264,23.48561 L3.417,20.66 L2,19.24871 L3.41421,17.82871 L5.482,15.766 L5.6546,15.58921 L13.3453764,7.90286923 C12.9054734,7.20764589 12.65083,6.38356062 12.65083,5.5 C12.65083,3.01472 14.66553,1 17.15083,1 Z M17.15083,3 C15.77013,3 14.65083,4.11929 14.65083,5.5 C14.65083,6.88071 15.77013,8 17.15083,8 C18.53153,8 19.65083,6.88071 19.65083,5.5 C19.65083,4.11929 18.53153,3 17.15083,3 Z"/></g></svg>