<svg xmlns="http://www.w3.org/2000/svg" width="24" height="24" viewBox="0 0 24 24"><g fill="none" fill-rule="evenodd"><rect width="24" height="24"/><path fill="#000" d="M5,4 C5.27614,4 5.5,3.77614 5.5,3.5 C5.5,3.22386 5.27614,3 5,3 C4.72386,3 4.5,3.22386 4.5,3.5 C4.5,3.77614 4.72386,4 5,4 Z M5,6 C6.38071,6 7.5,4.88071 7.5,3.5 C7.5,2.11929 6.38071,1 5,1 C3.61929,1 2.5,2.11929 2.5,3.5 C2.5,4.88071 3.61929,6 5,6 Z M4,16 L4,22 L6,22 L6,16 L8,16 L8,24 L2,24 L2,16 L4,16 Z M7,7 C8.65685,7 10,8.34315 10,10 L10,16 L8,16 L8,10 C8,9.44772 7.55228,9 7,9 L3,9 C2.44772,9 2,9.44772 2,10 L2,16 L0,16 L0,10 C0,8.34315 1.34315,7 3,7 L7,7 Z M24,24 C23.648266,24 23.3067359,23.9850613 22.9691905,23.9563426 L22.8661,23.9557 L22.8532755,23.9459172 C19.6797321,23.6450441 16.8662553,22.1082203 14.899472,19.8220845 L14.5890812,19.4461847 L14.408939,19.2130278 L14.1710882,18.885981 C14.0346298,18.6915637 13.903715,18.4927918 13.7786653,18.2900182 L13.7127622,18.1818804 C12.6254387,16.3763625 12,14.2612165 12,12 C12,9.9911524 12.4936163,8.09759525 13.3661729,6.43400294 L13.5435,6.10841 C13.6201005,5.97272618 13.6992681,5.83868239 13.7809371,5.70634444 L13.9900809,5.37935768 L14.2048313,5.06620602 L14.4563142,4.72452872 L14.6838,4.43584 C16.8848118,1.72883287 20.240516,0 24,0 L24,24 Z M22.4998953,17.550343 C21.7435818,17.6012742 20.9977443,17.6904302 20.2642985,17.8158945 C20.8413202,18.9912671 21.5986432,20.0610245 22.5001647,20.990084 L22.4998953,17.550343 Z M18.2614962,18.2584192 L18.1240659,18.2934733 C17.6108279,18.4353749 17.1051189,18.5954088 16.6076715,18.7728417 C17.4817756,19.6756162 18.5513735,20.3849614 19.779882,20.8617578 C19.1873505,20.0541479 18.6771455,19.1821526 18.2614962,18.2584192 Z M17.0141876,13.0007049 L14.0494,13 C14.2018652,14.5358353 14.6489896,15.9218258 15.3453897,17.1092042 C16.0696864,16.8277453 16.8112617,16.5816481 17.5678688,16.3716812 C17.255286,15.2945481 17.0655364,14.1656048 17.0141876,13.0007049 Z M22.5,13 L19.016486,13.0006891 C19.0682014,14.0099273 19.2405872,14.9872907 19.5194987,15.9186331 C20.4932415,15.7336091 21.4882195,15.6085019 22.5001656,15.5461039 L22.5,13 Z M15.3340818,6.88774345 L15.2260734,7.0793039 C14.5978277,8.23145931 14.1929714,9.55375204 14.0494,11 L17.0629177,11.0006681 C17.1702871,9.85023874 17.4129904,8.73910932 17.774948,7.6833577 C17.150563,7.51719854 16.5363681,7.32573834 15.9333448,7.11064826 L15.3340818,6.88774345 Z M19.7408575,8.12322247 L19.7365698,8.13569273 C19.4072277,9.04577641 19.1813725,10.0054091 19.0732162,11.0003774 L22.5,11 L22.5001656,8.45389708 C21.5648917,8.39622793 20.644112,8.28499296 19.7408575,8.12322247 Z M20.783521,5.94504993 L20.6100222,6.24041926 C21.2317642,6.3365821 21.8621048,6.4067118 22.4998953,6.4496595 L22.5001647,3.7212496 C21.9566201,4.28139291 21.4654933,4.89268379 21.0346963,5.54720957 L20.783521,5.94504993 Z M20.6694898,2.75257057 L20.568937,2.78073347 C18.9899469,3.25097196 17.636519,4.08935073 16.575065,5.21493585 C17.225182,5.44856571 17.8889774,5.65174027 18.5652754,5.82358675 C19.1328649,4.70699487 19.8424429,3.67608604 20.6694898,2.75257057 Z"/></g></svg>