<svg xmlns="http://www.w3.org/2000/svg" width="24" height="24" viewBox="0 0 24 24"><g fill="none" fill-rule="evenodd"><rect width="24" height="24"/><path fill="#000" d="M6,2 C6,0.89543 6.89543,0 8,0 L16,0 C17.1046,0 18,0.89543 18,2 L18,4 L16,4 L16,2 L8,2 L8,4 L6,4 L6,2 Z M22,4 C23.1046,4 24,4.89543 24,6 L24,22 C24,23.1046 23.1046,24 22,24 L2,24 C0.895429,24 0,23.1046 0,22 L0,6 C0,4.89543 0.89543,4 2,4 L22,4 Z M22,12.427 L12.6835,15.8155 C12.242,15.9761 11.7581,15.9761 11.3166,15.8155 L2,12.428 L2,22 L22,22 L22,12.427 Z M22,6 L2,6 L2,10.2996 L12,13.9359 L22,10.2996 L22,6 Z M12,10 C12.5523,10 13,10.4477 13,11 C13,11.5523 12.5523,12 12,12 C11.4477,12 11,11.5523 11,11 C11,10.4477 11.4477,10 12,10 Z"/></g></svg>