<svg xmlns="http://www.w3.org/2000/svg" width="24" height="24" viewBox="0 0 24 24"><g fill="none" fill-rule="evenodd"><polygon points="0 0 24 0 24 12 24 24 0 24"/><path fill="#000" d="M11,17 L11,22 L13,22 L13,17 L15,17 L15,24 L9,24 L9,17 L11,17 Z M16.5,9 L17,17 L15,17 L14.7167,10.4952 C14.4695,9.51758 14.0073,9.0376 13.1695,9.00213 L10.9719,9 C10.0691,9 9.57944,9.47848 9.32235,10.4952 L9,17 L7,17 L7.5,9 C7.95127,7.21543 8.98859,7.05914 10.829,7.00219 L10.9719,7 L13.0672,7 C14.9908,7 16.0372,7.16967 16.5,9 Z M12.0195,0 C13.6764,0 15.0195,1.34315 15.0195,3 C15.0195,4.59767679 13.7706226,5.90366059 12.1957773,5.99490729 L12,6 C10.3432,6 9.00005,4.65685 9.00005,3 C9.00005,1.40232321 10.2489739,0.0963394133 11.8237328,0.00509270909 L12.0195,0 Z M12.0091726,2.00004119 L12.0195,2 C11.4672,2 11.0195,2.44772 11.0195,3 C11.0195,3.54890833 11.4617503,3.99452944 12.0093964,3.99995002 C12.5523,4 13,3.55228 13,3 C13,2.45078067 12.5572484,2.00496563 12.0091726,2.00004119 Z"/></g></svg>