<svg xmlns="http://www.w3.org/2000/svg" width="24" height="24" viewBox="0 0 24 24"><g fill="none" fill-rule="evenodd"><rect width="24" height="24"/><path fill="#000" d="M7.5,12.5 C8.88071,12.5 10,13.6193 10,15 L10,16 L8,16 L8,15 C8,14.7239 7.77614,14.5 7.5,14.5 C7.22386,14.5 7,14.7239 7,15 L7,24 L5,24 L5,15 C5,13.6193 6.11929,12.5 7.5,12.5 Z M18,16 L18,24 L10,24 L10,18 L12,18 L12,22 L16,22 L16,16 L18,16 Z M17,7 C18.6569,7 20,8.34315 20,10 L20,16 L18,16 L18,10 L17.9932725,9.88337975 C17.9355092,9.38604429 17.51285,9 17,9 L11,9 C10.44772,9 10,9.44772 10,10 L10,11 L8,11 L8,10 L8.00509271,9.82372764 C8.09633941,8.24892392 9.40232321,7 11,7 L17,7 Z M14,4 C14.5523,4 15,3.55228 15,3 C15,2.44772 14.5523,2 14,2 C13.4477,2 13,2.44772 13,3 C13,3.55228 13.4477,4 14,4 Z M14,6 C15.6569,6 17,4.65685 17,3 C17,1.34315 15.6569,0 14,0 C12.3431,0 11,1.34315 11,3 C11,4.65685 12.3431,6 14,6 Z"/></g></svg>