<svg xmlns="http://www.w3.org/2000/svg" width="24" height="24" viewBox="0 0 24 24"><g fill="none" fill-rule="evenodd"><rect width="24" height="24"/><path fill="#000" d="M7.5999,10.5 C9.25675,10.5 10.5999,11.8431 10.5999,13.5 L10.5999,14 L14,14 L14,24 L0,24 L0,14 L3.3999,14 L3.3999,13.5 C3.3999,11.8431 4.74305,10.5 6.3999,10.5 L7.5999,10.5 Z M22,16 L22,24 L18,24 L18,22 L20,22 L20,16 L22,16 Z M12,16 L2,16 L2,22 L12,22 L12,16 Z M21,7 C22.6569,7 24,8.34315 24,10 L24,16 L22,16 L22,10 C22,9.44772 21.5523,9 21,9 L15,9 C14.4477,9 14,9.44772 14,10 L14,12 L12,12 L12,10 C12,8.34315 13.3431,7 15,7 L21,7 Z M7.5999,12.5 L6.3999,12.5 C5.84762,12.5 5.3999,12.9477 5.3999,13.5 L5.3999,14 L8.5999,14 L8.5999,13.5 C8.5999,12.9477 8.15219,12.5 7.5999,12.5 Z M18,4 C18.5523,4 19,3.55228 19,3 C19,2.44772 18.5523,2 18,2 C17.4477,2 17,2.44772 17,3 C17,3.55228 17.4477,4 18,4 Z M18,6 C19.6569,6 21,4.65685 21,3 C21,1.34315 19.6569,0 18,0 C16.3431,0 15,1.34315 15,3 C15,4.65685 16.3431,6 18,6 Z"/></g></svg>