<svg xmlns="http://www.w3.org/2000/svg" width="24" height="24" viewBox="0 0 24 24"><g fill="none" fill-rule="evenodd"><rect width="24" height="24"/><path fill="#000" d="M12,0 C13.3807,0 14.5,1.11929 14.5,2.5 C14.5,3.52483686 13.8833325,4.40564691 13.000825,4.79161504 L13.0009204,5.57658862 C13.9874508,5.72906192 14.9007194,6.10336352 15.6881648,6.64692865 L16.9217264,5.41240555 C16.8108686,5.12973936 16.75,4.82197781 16.75,4.5 C16.75,3.11929 17.8693,2 19.25,2 C20.6307,2 21.75,3.11929 21.75,4.5 C21.75,5.88071 20.6307,7 19.25,7 C18.9280245,7 18.6202642,6.93913192 18.3375986,6.82827484 L17.1420078,8.0233263 C17.8000734,8.87299508 18.2522061,9.89019858 18.4235674,11.0000931 L19.2079472,11.0001799 C19.5936884,10.1171356 20.4747816,9.5 21.5,9.5 C22.8807,9.5 24,10.6193 24,12 C24,13.3807 22.8807,14.5 21.5,14.5 C20.4751706,14.5 19.5943569,13.8833325 19.2083864,13.000825 L18.4234126,13.0009204 C18.2614451,14.0488961 17.8491593,15.0141996 17.249562,15.833824 L19.645123,18.2309549 C19.9832608,18.0824342 20.3570024,18 20.75,18 C22.2688,18 23.5,19.2312 23.5,20.75 C23.5,22.2688 22.2688,23.5 20.75,23.5 C19.2312,23.5 18,22.2688 18,20.75 C18,20.3570024 18.0824342,19.9832608 18.2309549,19.645123 L15.833824,17.249562 C15.0141996,17.8491593 14.0488961,18.2614451 13.0009204,18.4234126 L13.000825,19.2083864 C13.8833325,19.5943569 14.5,20.4751706 14.5,21.5 C14.5,22.8807 13.3807,24 12,24 C10.6193,24 9.5,22.8807 9.5,21.5 C9.5,20.4747816 10.1171356,19.5936884 11.0001799,19.2079472 L11.0000931,18.4235674 C9.95174064,18.2617078 8.98608502,17.8493503 8.16619758,17.249562 L7.00215818,18.4134283 C7.16097128,18.741997 7.25,19.1106026 7.25,19.5 C7.25,20.8807 6.13071,22 4.75,22 C3.36929,22 2.25,20.8807 2.25,19.5 C2.25,18.1193 3.36929,17 4.75,17 C5.00273394,17 5.24670874,17.0375032 5.47666298,17.1072481 L6.7504524,15.833824 C6.15085021,15.0141996 5.7385586,14.0488961 5.57658862,13.0009204 L4.79161504,13.000825 C4.40564691,13.8833325 3.52483686,14.5 2.5,14.5 C1.11929,14.5 0,13.3807 0,12 C0,10.6193 1.11929,9.5 2.5,9.5 C3.52522579,9.5 4.40631543,10.1171356 4.79205426,11.0001799 L5.57643385,11.0000931 C5.73829586,9.95174064 6.15065915,8.98608502 6.7504524,8.16619758 L4.29272693,5.7079568 C3.90126578,5.89517014 3.46287468,6 3,6 C1.34315,6 0,4.65685 0,3 C0,1.34315 1.34315,0 3,0 C4.65685,0 6,1.34315 6,3 C6,3.46287468 5.89517014,3.90126578 5.7079568,4.29272693 L8.16619758,6.7504524 C8.98608502,6.15065915 9.95174064,5.73829586 11.0000931,5.57643385 L11.0001799,4.79205426 C10.1171356,4.40631543 9.5,3.52522579 9.5,2.5 C9.5,1.11929 10.6193,0 12,0 Z M12,21 C11.7239,21 11.5,21.2239 11.5,21.5 C11.5,21.7761 11.7239,22 12,22 C12.2761,22 12.5,21.7761 12.5,21.5 C12.5,21.2239 12.2761,21 12,21 Z M20.75,20 C20.3358,20 20,20.3358 20,20.75 C20,21.1642 20.3358,21.5 20.75,21.5 C21.1642,21.5 21.5,21.1642 21.5,20.75 C21.5,20.3358 21.1642,20 20.75,20 Z M4.75,19 C4.47386,19 4.25,19.2239 4.25,19.5 C4.25,19.7761 4.47386,20 4.75,20 C5.02614,20 5.25,19.7761 5.25,19.5 C5.25,19.2239 5.02614,19 4.75,19 Z M12,7.5 C9.51472,7.5 7.5,9.51472 7.5,12 C7.5,14.4853 9.51472,16.5 12,16.5 C14.4853,16.5 16.5,14.4853 16.5,12 C16.5,9.51472 14.4853,7.5 12,7.5 Z M2.5,11.5 C2.22386,11.5 2,11.7239 2,12 C2,12.2761 2.22386,12.5 2.5,12.5 C2.77614,12.5 3,12.2761 3,12 C3,11.7239 2.77614,11.5 2.5,11.5 Z M21.5,11.5 C21.2239,11.5 21,11.7239 21,12 C21,12.2761 21.2239,12.5 21.5,12.5 C21.7761,12.5 22,12.2761 22,12 C22,11.7239 21.7761,11.5 21.5,11.5 Z M19.25,4 C18.9739,4 18.75,4.22386 18.75,4.5 C18.75,4.77614 18.9739,5 19.25,5 C19.5261,5 19.75,4.77614 19.75,4.5 C19.75,4.22386 19.5261,4 19.25,4 Z M3,2 C2.44772,2 2,2.44772 2,3 C2,3.55228 2.44772,4 3,4 C3.55228,4 4,3.55228 4,3 C4,2.44772 3.55228,2 3,2 Z M12,2 C11.7239,2 11.5,2.22386 11.5,2.5 C11.5,2.77614 11.7239,3 12,3 C12.2761,3 12.5,2.77614 12.5,2.5 C12.5,2.22386 12.2761,2 12,2 Z"/></g></svg>