<svg xmlns="http://www.w3.org/2000/svg" width="24" height="24" viewBox="0 0 24 24"><g fill="none" fill-rule="evenodd"><rect width="24" height="24"/><path fill="#000" d="M10,17 L10,22 L14,22 L14,17 L16,17 L16,24 L8,24 L8,17 L10,17 Z M15.3333,9 C16.8061,9 18,10.1939 18,11.6667 L18,17 L16,17 L16,11.6667 C16,11.2985 15.7015,11 15.3333,11 L8.66667,11 C8.33195182,11 8.05484521,11.2466942 8.00722845,11.5681818 L8,11.6667 L8,17 L6,17 L6,11.67 C6,10.1972 7.19391,9 8.66667,9 L15.3333,9 Z M13.5,0 C14.6046,0 15.5,0.895431 15.5,2 L18,2 L18,4 L15.5,4 L15.5,5 C15.5,5.98703 15.2478,6.9091 14.5784,7.57843 C13.9091,8.24776 12.987,8.5 12,8.5 C11.013,8.5 10.0909,8.24776 9.42157,7.57843 C8.75224,6.9091 8.5,5.98703 8.5,5 L8.5,2 C8.5,0.895431 9.39543,0 10.5,0 L13.5,0 Z M13.5,4 L10.5,4 L10.5,5 C10.5,5.66982 10.6693,5.99776 10.8358,6.16421 C11.0022,6.33067 11.3302,6.5 12,6.5 C12.6698,6.5 12.9978,6.33067 13.1642,6.16421 C13.3307,5.99776 13.5,5.66982 13.5,5 L13.5,4 Z"/></g></svg>